# xmcd
#
# Track frame offsets: 
#        150
#        12850
#        26339
#        42047
#        58063
#        74052
#        87775
#        103429
#        118472
#        133074
#
# Disc length: 1980 seconds
#
# Revision: 1
# Processed by: cddbd v1.5.2PL0 Copyright (c) Steve Scherf et al.
# Submitted via: ExactAudioCopy v0.99pb4
#
DISCID=8f07ba0a
DTITLE=B.B.King - Blues In My Heart
DYEAR=1962
DGENRE=Blues
TTITLE0=You're Gonna Miss Me
TTITLE1=Got'Em Bad
TTITLE2=Troubles Don't Last
TTITLE3=Your Letter
TTITLE4=I Can't Explain
TTITLE5=The Wrong Road
TTITLE6=I Need You Baby
TTITLE7=So Many Roads
TTITLE8=Down Hearted
TTITLE9=Strange Things
EXTD=
EXTT0=
EXTT1=
EXTT2=
EXTT3=
EXTT4=
EXTT5=
EXTT6=
EXTT7=
EXTT8=
EXTT9=
PLAYORDER=
